<svg xmlns="http://www.w3.org/2000/svg" viewBox="0 0 400 250" fill="none" aria-hidden="true">
  <defs>
    <linearGradient id="co-header" x1="0%" y1="0%" x2="0%" y2="100%">
      <stop offset="0%" stop-color="#151d30"/>
      <stop offset="100%" stop-color="#0f1626"/>
    </linearGradient>
  </defs>
  <rect width="400" height="250" fill="#080c14"/>
  <!-- Corporate header band -->
  <rect x="0" y="0" width="400" height="42" fill="url(#co-header)"/>
  <line x1="0" y1="42" x2="400" y2="42" stroke="rgba(255,255,255,0.12)" stroke-width="2"/>
  <rect x="20" y="14" width="48" height="12" rx="2" fill="rgba(255,255,255,0.14)"/>
  <rect x="118" y="17" width="36" height="6" rx="1" fill="rgba(255,255,255,0.08)"/>
  <rect x="162" y="17" width="44" height="6" rx="1" fill="rgba(255,255,255,0.08)"/>
  <rect x="214" y="17" width="32" height="6" rx="1" fill="rgba(255,255,255,0.08)"/>
  <rect x="254" y="17" width="40" height="6" rx="1" fill="rgba(255,255,255,0.08)"/>
  <rect x="302" y="17" width="36" height="6" rx="1" fill="rgba(255,255,255,0.08)"/>
  <rect x="318" y="13" width="62" height="22" rx="3" fill="rgba(77,166,255,0.22)"/>
  <!-- Left rail + main -->
  <rect x="0" y="42" width="56" height="208" fill="#0a101c"/>
  <line x1="56" y1="42" x2="56" y2="250" stroke="rgba(255,255,255,0.08)" stroke-width="1"/>
  <rect x="16" y="58" width="24" height="3" rx="1" fill="rgba(255,255,255,0.12)"/>
  <rect x="16" y="70" width="24" height="3" rx="1" fill="rgba(255,255,255,0.07)"/>
  <rect x="16" y="82" width="24" height="3" rx="1" fill="rgba(255,255,255,0.07)"/>
  <rect x="16" y="94" width="24" height="3" rx="1" fill="rgba(255,255,255,0.07)"/>
  <rect x="16" y="106" width="24" height="3" rx="1" fill="rgba(77,166,255,0.35)"/>
  <!-- Breadcrumb -->
  <rect x="72" y="54" width="40" height="5" rx="1" fill="rgba(255,255,255,0.1)"/>
  <rect x="118" y="54" width="6" height="5" rx="1" fill="rgba(255,255,255,0.06)"/>
  <rect x="130" y="54" width="52" height="5" rx="1" fill="rgba(255,255,255,0.07)"/>
  <!-- Hero panel -->
  <rect x="72" y="70" width="312" height="52" rx="3" fill="rgba(17,26,46,0.65)" stroke="rgba(255,255,255,0.1)" stroke-width="1"/>
  <line x1="72" y1="96" x2="384" y2="96" stroke="rgba(255,255,255,0.06)"/>
  <rect x="88" y="80" width="168" height="10" rx="2" fill="rgba(255,255,255,0.14)"/>
  <rect x="88" y="102" width="240" height="6" rx="1" fill="rgba(255,255,255,0.06)"/>
  <!-- Three-column services -->
  <rect x="72" y="134" width="96" height="72" rx="2" fill="rgba(255,255,255,0.04)" stroke="rgba(255,255,255,0.09)" stroke-width="1"/>
  <rect x="180" y="134" width="96" height="72" rx="2" fill="rgba(255,255,255,0.04)" stroke="rgba(255,255,255,0.09)" stroke-width="1"/>
  <rect x="288" y="134" width="96" height="72" rx="2" fill="rgba(255,255,255,0.04)" stroke="rgba(255,255,255,0.09)" stroke-width="1"/>
  <rect x="88" y="148" width="20" height="20" rx="2" fill="rgba(77,166,255,0.28)"/>
  <rect x="196" y="148" width="20" height="20" rx="2" fill="rgba(110,231,255,0.22)"/>
  <rect x="304" y="148" width="20" height="20" rx="2" fill="rgba(255,255,255,0.1)"/>
  <rect x="88" y="176" width="64" height="5" rx="1" fill="rgba(255,255,255,0.08)"/>
  <rect x="196" y="176" width="64" height="5" rx="1" fill="rgba(255,255,255,0.08)"/>
  <rect x="304" y="176" width="64" height="5" rx="1" fill="rgba(255,255,255,0.08)"/>
  <!-- Footer strip -->
  <rect x="72" y="218" width="312" height="24" rx="2" fill="#0d1321" stroke="rgba(255,255,255,0.07)" stroke-width="1"/>
  <rect x="84" y="228" width="120" height="4" rx="1" fill="rgba(255,255,255,0.08)"/>
  <rect x="280" y="228" width="88" height="4" rx="1" fill="rgba(255,255,255,0.06)"/>
</svg>
